<?xml version="1.0" encoding="UTF-8"?>
<!DOCTYPE svg PUBLIC "-//W3C//DTD SVG 1.1//EN" "http://www.w3.org/Graphics/SVG/1.1/DTD/svg11.dtd">
<!-- Creator: CorelDRAW -->
<svg xmlns="http://www.w3.org/2000/svg" xml:space="preserve" width="20.7795mm" height="15.2145mm" version="1.1" style="shape-rendering:geometricPrecision; text-rendering:geometricPrecision; image-rendering:optimizeQuality; fill-rule:evenodd; clip-rule:evenodd"
viewBox="0 0 68.07 49.84"
 xmlns:xlink="http://www.w3.org/1999/xlink"
 xmlns:xodm="http://www.corel.com/coreldraw/odm/2003">
 <defs>
  <style type="text/css">
   <![CDATA[
    .fil1 {fill:#AD8B4B}
    .fil0 {fill:#2B2A29;fill-rule:nonzero}
   ]]>
  </style>
 </defs>
 <g id="Layer_x0020_1">
  <metadata id="CorelCorpID_0Corel-Layer"/>
  <path class="fil0" d="M4.91 49.84c-1.08,0 -1.97,-0.2 -2.68,-0.6 -0.71,-0.4 -1.25,-0.96 -1.61,-1.67 -0.36,-0.72 -0.56,-1.55 -0.6,-2.5 -0.01,-0.48 -0.02,-1 -0.02,-1.55 0,-0.55 0.01,-1.08 0.02,-1.58 0.04,-0.95 0.23,-1.78 0.6,-2.5 0.36,-0.72 0.9,-1.27 1.61,-1.67 0.71,-0.4 1.6,-0.6 2.68,-0.6 0.81,0 1.52,0.11 2.13,0.33 0.61,0.22 1.12,0.52 1.52,0.9 0.4,0.38 0.71,0.8 0.92,1.26 0.21,0.46 0.33,0.94 0.35,1.43 0.01,0.11 -0.02,0.19 -0.1,0.26 -0.08,0.07 -0.17,0.11 -0.27,0.11l-0.97 0c-0.11,0 -0.2,-0.03 -0.27,-0.09 -0.08,-0.06 -0.13,-0.16 -0.17,-0.32 -0.2,-0.92 -0.57,-1.54 -1.12,-1.88 -0.55,-0.34 -1.23,-0.51 -2.05,-0.51 -0.94,0 -1.68,0.27 -2.24,0.8 -0.55,0.53 -0.85,1.39 -0.9,2.56 -0.04,0.96 -0.04,1.95 0,2.96 0.05,1.17 0.35,2.03 0.9,2.56 0.55,0.53 1.3,0.8 2.24,0.8 0.82,0 1.5,-0.17 2.05,-0.51 0.55,-0.34 0.92,-0.97 1.12,-1.88 0.04,-0.15 0.09,-0.26 0.17,-0.32 0.08,-0.06 0.17,-0.09 0.27,-0.09l0.97 0c0.11,0 0.2,0.04 0.27,0.11 0.08,0.07 0.11,0.16 0.1,0.26 -0.02,0.49 -0.14,0.97 -0.35,1.43 -0.21,0.46 -0.52,0.88 -0.92,1.26 -0.4,0.38 -0.91,0.67 -1.52,0.9 -0.61,0.22 -1.32,0.33 -2.13,0.33z"/>
  <path id="_1" class="fil0" d="M16.38 49.84c-0.89,0 -1.64,-0.17 -2.24,-0.51 -0.6,-0.34 -1.06,-0.81 -1.37,-1.42 -0.32,-0.6 -0.49,-1.29 -0.53,-2.07 -0.01,-0.2 -0.02,-0.45 -0.02,-0.77 0,-0.31 0.01,-0.56 0.02,-0.75 0.04,-0.79 0.21,-1.48 0.54,-2.08 0.32,-0.6 0.78,-1.07 1.38,-1.41 0.6,-0.34 1.34,-0.51 2.22,-0.51 0.88,0 1.62,0.17 2.22,0.51 0.6,0.34 1.06,0.81 1.38,1.41 0.32,0.6 0.5,1.29 0.54,2.08 0.01,0.19 0.02,0.44 0.02,0.75 0,0.31 -0.01,0.57 -0.02,0.77 -0.04,0.77 -0.21,1.46 -0.53,2.07 -0.32,0.6 -0.77,1.08 -1.37,1.42 -0.6,0.34 -1.34,0.51 -2.24,0.51zm0 -1.36c0.73,0 1.31,-0.23 1.74,-0.7 0.43,-0.46 0.67,-1.14 0.7,-2.03 0.01,-0.18 0.02,-0.4 0.02,-0.67 0,-0.27 -0.01,-0.49 -0.02,-0.67 -0.04,-0.89 -0.27,-1.57 -0.7,-2.03 -0.43,-0.46 -1.01,-0.7 -1.74,-0.7 -0.73,0 -1.31,0.23 -1.75,0.7 -0.44,0.46 -0.67,1.14 -0.7,2.03 -0.01,0.18 -0.02,0.4 -0.02,0.67 0,0.27 0.01,0.49 0.02,0.67 0.02,0.89 0.26,1.57 0.7,2.03 0.44,0.46 1.02,0.7 1.75,0.7z"/>
  <path id="_2" class="fil0" d="M23.79 49.66c-0.12,0 -0.21,-0.04 -0.29,-0.11 -0.08,-0.08 -0.11,-0.17 -0.11,-0.29l0 -8.34c0,-0.12 0.04,-0.21 0.11,-0.29 0.08,-0.08 0.17,-0.11 0.29,-0.11l0.83 0c0.12,0 0.21,0.04 0.29,0.11 0.08,0.08 0.11,0.17 0.11,0.29l0 0.77c0.3,-0.4 0.69,-0.72 1.15,-0.98 0.46,-0.25 1.06,-0.38 1.79,-0.38 0.76,0 1.41,0.17 1.95,0.5 0.53,0.33 0.94,0.8 1.21,1.39 0.27,0.59 0.4,1.28 0.4,2.07l0 4.96c0,0.12 -0.04,0.21 -0.11,0.29 -0.07,0.08 -0.16,0.11 -0.28,0.11l-0.88 0c-0.12,0 -0.21,-0.04 -0.29,-0.11 -0.08,-0.08 -0.11,-0.17 -0.11,-0.29l0 -4.88c0,-0.82 -0.2,-1.46 -0.6,-1.93 -0.4,-0.46 -0.99,-0.7 -1.76,-0.7 -0.73,0 -1.31,0.23 -1.75,0.7 -0.44,0.46 -0.66,1.11 -0.66,1.93l0 4.88c0,0.12 -0.04,0.21 -0.11,0.29 -0.08,0.08 -0.17,0.11 -0.29,0.11l-0.88 0z"/>
  <path id="_3" class="fil0" d="M38.16 49.66c-0.66,0 -1.19,-0.13 -1.6,-0.38 -0.41,-0.25 -0.71,-0.61 -0.9,-1.07 -0.19,-0.46 -0.28,-1.01 -0.28,-1.65l0 -4.65 -1.37 0c-0.12,0 -0.21,-0.04 -0.29,-0.11 -0.08,-0.08 -0.11,-0.17 -0.11,-0.29l0 -0.6c0,-0.12 0.04,-0.21 0.11,-0.29 0.08,-0.08 0.17,-0.11 0.29,-0.11l1.37 0 0 -2.94c0,-0.12 0.04,-0.21 0.11,-0.29 0.08,-0.08 0.17,-0.11 0.29,-0.11l0.83 0c0.12,0 0.21,0.04 0.29,0.11 0.08,0.08 0.11,0.17 0.11,0.29l0 2.94 2.18 0c0.12,0 0.21,0.04 0.29,0.11 0.08,0.08 0.11,0.17 0.11,0.29l0 0.6c0,0.12 -0.04,0.21 -0.11,0.29 -0.08,0.08 -0.17,0.11 -0.29,0.11l-2.18 0 0 4.52c0,0.55 0.09,0.99 0.28,1.3 0.19,0.32 0.52,0.48 1,0.48l1.07 0c0.12,0 0.21,0.04 0.29,0.11 0.08,0.08 0.11,0.17 0.11,0.29l0 0.63c0,0.12 -0.04,0.21 -0.11,0.29 -0.08,0.08 -0.17,0.11 -0.29,0.11l-1.21 0z"/>
  <path id="_4" class="fil0" d="M44.68 49.84c-0.59,0 -1.12,-0.12 -1.6,-0.35 -0.48,-0.23 -0.87,-0.55 -1.16,-0.95 -0.29,-0.4 -0.44,-0.85 -0.44,-1.36 0,-0.81 0.33,-1.46 0.99,-1.94 0.66,-0.48 1.51,-0.8 2.57,-0.95l2.62 -0.37 0 -0.51c0,-0.56 -0.16,-1 -0.48,-1.32 -0.32,-0.32 -0.85,-0.47 -1.58,-0.47 -0.53,0 -0.95,0.11 -1.28,0.32 -0.32,0.21 -0.55,0.48 -0.68,0.81 -0.07,0.18 -0.19,0.26 -0.37,0.26l-0.79 0c-0.13,0 -0.23,-0.04 -0.29,-0.11 -0.06,-0.08 -0.1,-0.17 -0.1,-0.27 0,-0.18 0.07,-0.39 0.2,-0.65 0.13,-0.26 0.34,-0.51 0.62,-0.76 0.28,-0.25 0.64,-0.45 1.08,-0.62 0.44,-0.17 0.98,-0.26 1.61,-0.26 0.7,0 1.3,0.09 1.78,0.27 0.48,0.18 0.86,0.43 1.14,0.73 0.28,0.3 0.47,0.65 0.6,1.04 0.12,0.39 0.18,0.78 0.18,1.18l0 5.7c0,0.12 -0.04,0.21 -0.11,0.29 -0.08,0.08 -0.17,0.11 -0.29,0.11l-0.81 0c-0.13,0 -0.23,-0.04 -0.3,-0.11 -0.07,-0.08 -0.11,-0.17 -0.11,-0.29l0 -0.76c-0.15,0.21 -0.36,0.42 -0.62,0.62 -0.26,0.21 -0.58,0.38 -0.97,0.51 -0.39,0.13 -0.86,0.2 -1.43,0.2zm0.37 -1.32c0.48,0 0.92,-0.1 1.32,-0.31 0.4,-0.21 0.71,-0.53 0.94,-0.96 0.23,-0.43 0.34,-0.98 0.34,-1.64l0 -0.49 -2.04 0.3c-0.83,0.12 -1.46,0.31 -1.88,0.59 -0.42,0.28 -0.63,0.62 -0.63,1.05 0,0.33 0.1,0.6 0.29,0.82 0.19,0.22 0.44,0.38 0.74,0.48 0.3,0.11 0.61,0.16 0.92,0.16z"/>
  <path id="_5" class="fil0" d="M56.2 49.84c-0.83,0 -1.55,-0.16 -2.16,-0.48 -0.6,-0.32 -1.07,-0.79 -1.4,-1.39 -0.33,-0.6 -0.5,-1.33 -0.53,-2.17 -0.01,-0.18 -0.02,-0.41 -0.02,-0.7 0,-0.29 0.01,-0.53 0.02,-0.7 0.02,-0.84 0.2,-1.57 0.53,-2.17 0.33,-0.6 0.8,-1.07 1.4,-1.39 0.6,-0.32 1.32,-0.48 2.16,-0.48 0.68,0 1.26,0.09 1.75,0.28 0.49,0.19 0.89,0.43 1.21,0.72 0.32,0.29 0.55,0.61 0.71,0.95 0.16,0.34 0.24,0.66 0.26,0.97 0.01,0.12 -0.02,0.21 -0.11,0.28 -0.08,0.07 -0.18,0.11 -0.3,0.11l-0.84 0c-0.12,0 -0.21,-0.03 -0.26,-0.08 -0.06,-0.05 -0.12,-0.14 -0.18,-0.27 -0.21,-0.57 -0.5,-0.98 -0.86,-1.21 -0.36,-0.23 -0.82,-0.35 -1.36,-0.35 -0.7,0 -1.28,0.22 -1.72,0.65 -0.44,0.43 -0.68,1.13 -0.71,2.09 -0.01,0.42 -0.01,0.83 0,1.23 0.04,0.97 0.27,1.68 0.71,2.1 0.44,0.43 1.01,0.64 1.72,0.64 0.54,0 0.99,-0.12 1.36,-0.35 0.36,-0.23 0.65,-0.64 0.86,-1.21 0.06,-0.13 0.12,-0.22 0.18,-0.27 0.06,-0.05 0.15,-0.08 0.26,-0.08l0.84 0c0.12,0 0.22,0.04 0.3,0.11 0.08,0.07 0.12,0.16 0.11,0.28 -0.01,0.25 -0.06,0.5 -0.16,0.76 -0.09,0.26 -0.24,0.52 -0.45,0.78 -0.21,0.26 -0.46,0.5 -0.77,0.7 -0.31,0.21 -0.67,0.37 -1.1,0.49 -0.43,0.12 -0.91,0.18 -1.45,0.18z"/>
  <path id="_6" class="fil0" d="M66.45 49.66c-0.66,0 -1.19,-0.13 -1.6,-0.38 -0.41,-0.25 -0.71,-0.61 -0.9,-1.07 -0.19,-0.46 -0.28,-1.01 -0.28,-1.65l0 -4.65 -1.37 0c-0.12,0 -0.21,-0.04 -0.29,-0.11 -0.08,-0.08 -0.11,-0.17 -0.11,-0.29l0 -0.6c0,-0.12 0.04,-0.21 0.11,-0.29 0.08,-0.08 0.17,-0.11 0.29,-0.11l1.37 0 0 -2.94c0,-0.12 0.04,-0.21 0.11,-0.29 0.08,-0.08 0.17,-0.11 0.29,-0.11l0.83 0c0.12,0 0.21,0.04 0.29,0.11 0.08,0.08 0.11,0.17 0.11,0.29l0 2.94 2.18 0c0.12,0 0.21,0.04 0.29,0.11 0.08,0.08 0.11,0.17 0.11,0.29l0 0.6c0,0.12 -0.04,0.21 -0.11,0.29 -0.08,0.08 -0.17,0.11 -0.29,0.11l-2.18 0 0 4.52c0,0.55 0.09,0.99 0.28,1.3 0.19,0.32 0.52,0.48 1,0.48l1.07 0c0.12,0 0.21,0.04 0.29,0.11 0.08,0.08 0.11,0.17 0.11,0.29l0 0.63c0,0.12 -0.04,0.21 -0.11,0.29 -0.08,0.08 -0.17,0.11 -0.29,0.11l-1.21 0z"/>
  <g id="_1720884476448">
   <path class="fil1" d="M36.33 24.53c-1.42,-0.23 -4.48,-1.96 -5.75,-3 -0.32,-0.26 -0.54,-0.38 -0.78,-0.62 -0.34,-0.32 -0.48,-0.48 -0.76,-0.75 -1.53,-1.48 -3.79,-4.38 -4.57,-7.19 1.88,-0.65 3.12,-0.96 4.17,-2.33 0.53,-0.7 0.95,-1.15 0.69,-2.31 -0.34,-1.5 -1.35,-3.24 -2.4,-4.25 -0.76,-0.73 -0.99,-0.81 -2.33,-0.63 -2.12,0.28 -3.37,1.08 -4.56,2.1 -1.35,1.16 -1.75,2.46 -1.49,4.92 0.35,3.35 2.01,6.75 3.92,9.27 3.67,4.87 9.19,9.83 15.51,10.85 2.44,0.39 3.93,0.33 5.39,-1.02 1.6,-1.48 3.37,-5.41 2.14,-6.86 -0.5,-0.6 -1.06,-1.06 -1.82,-1.56 -0.64,-0.42 -1.38,-0.8 -2.2,-1.06 -1.47,-0.47 -1.64,-0.3 -2.59,0.35 -1.19,0.8 -2.12,2.28 -2.55,4.11z"/>
   <path class="fil1" d="M35.28 0.1c-1.12,0.35 -0.95,1.85 0.46,1.95 3.53,0.25 5.32,0.92 7.98,3.18 1.94,1.66 3.44,4.6 3.75,7.44 0.12,1.07 -0.06,2.67 1.37,2.31 1.61,-0.41 0.27,-4.73 -0.19,-5.93 -1.31,-3.46 -3.83,-6.14 -7.2,-7.73 -1.14,-0.54 -4.78,-1.65 -6.17,-1.22z"/>
   <path class="fil1" d="M34.85 5.14c-0.58,0.24 -1.03,0.94 -0.44,1.58 0.45,0.49 1.46,0.34 2.19,0.48 3.59,0.7 5.81,3.5 6.09,7.27 0.13,1.8 3.21,2.01 1.5,-2.95 -0.86,-2.49 -2.64,-4.44 -5.03,-5.58 -0.83,-0.4 -3.37,-1.19 -4.3,-0.8z"/>
   <path class="fil1" d="M33.97 9.88c-0.92,0.31 -0.89,1.61 0.06,1.89 1.14,0.34 1.56,-0.02 2.53,0.85 1.81,1.63 1.06,2.61 1.54,3.37 0.21,0.34 0.66,0.57 1.17,0.39 0.84,-0.29 0.72,-1.45 0.47,-2.39 -0.78,-2.93 -4.09,-4.66 -5.77,-4.1z"/>
  </g>
 </g>
</svg>
