<?xml version="1.0" encoding="UTF-8"?>
<!DOCTYPE svg PUBLIC "-//W3C//DTD SVG 1.1//EN" "http://www.w3.org/Graphics/SVG/1.1/DTD/svg11.dtd">
<!-- Creator: CorelDRAW -->
<svg xmlns="http://www.w3.org/2000/svg" xml:space="preserve" width="13.0043mm" height="15.7637mm" version="1.1" style="shape-rendering:geometricPrecision; text-rendering:geometricPrecision; image-rendering:optimizeQuality; fill-rule:evenodd; clip-rule:evenodd"
viewBox="0 0 30.01 36.38"
 xmlns:xlink="http://www.w3.org/1999/xlink"
 xmlns:xodm="http://www.corel.com/coreldraw/odm/2003">
 <defs>
  <style type="text/css">
   <![CDATA[
    .fil1 {fill:#AD8B4B}
    .fil0 {fill:#2B2A29;fill-rule:nonzero}
   ]]>
  </style>
 </defs>
 <g id="Layer_x0020_1">
  <metadata id="CorelCorpID_0Corel-Layer"/>
  <path class="fil0" d="M3.35 34.14c-0.72,0 -1.32,-0.11 -1.81,-0.33 -0.49,-0.22 -0.86,-0.5 -1.12,-0.86 -0.26,-0.35 -0.4,-0.73 -0.42,-1.12 0,-0.07 0.03,-0.13 0.08,-0.18 0.05,-0.05 0.12,-0.08 0.19,-0.08l0.63 0c0.1,0 0.17,0.02 0.22,0.07 0.05,0.05 0.08,0.11 0.1,0.17 0.04,0.2 0.14,0.39 0.3,0.59 0.16,0.19 0.39,0.36 0.68,0.48 0.29,0.13 0.67,0.19 1.13,0.19 0.71,0 1.23,-0.13 1.57,-0.38 0.33,-0.25 0.5,-0.59 0.5,-1.01 0,-0.29 -0.09,-0.52 -0.27,-0.7 -0.18,-0.18 -0.45,-0.34 -0.81,-0.48 -0.36,-0.14 -0.84,-0.29 -1.41,-0.46 -0.6,-0.17 -1.1,-0.36 -1.5,-0.57 -0.4,-0.21 -0.69,-0.46 -0.89,-0.77 -0.19,-0.31 -0.29,-0.69 -0.29,-1.17 0,-0.45 0.12,-0.85 0.36,-1.2 0.24,-0.35 0.58,-0.63 1.04,-0.84 0.45,-0.21 1,-0.31 1.64,-0.31 0.51,0 0.96,0.07 1.35,0.2 0.38,0.14 0.7,0.32 0.96,0.55 0.26,0.23 0.45,0.47 0.58,0.73 0.13,0.26 0.2,0.51 0.21,0.76 0,0.06 -0.02,0.11 -0.06,0.17 -0.04,0.05 -0.11,0.08 -0.2,0.08l-0.66 0c-0.06,0 -0.12,-0.02 -0.18,-0.05 -0.06,-0.03 -0.11,-0.1 -0.14,-0.19 -0.05,-0.34 -0.24,-0.62 -0.57,-0.86 -0.33,-0.23 -0.76,-0.35 -1.29,-0.35 -0.54,0 -0.97,0.1 -1.31,0.31 -0.33,0.21 -0.5,0.53 -0.5,0.97 0,0.28 0.08,0.51 0.24,0.7 0.16,0.19 0.41,0.35 0.74,0.49 0.34,0.14 0.78,0.29 1.33,0.45 0.66,0.18 1.2,0.37 1.62,0.58 0.42,0.2 0.73,0.45 0.94,0.76 0.2,0.3 0.3,0.69 0.3,1.16 0,0.52 -0.14,0.97 -0.41,1.33 -0.27,0.37 -0.66,0.65 -1.15,0.84 -0.49,0.19 -1.07,0.29 -1.74,0.29z"/>
  <path id="_1" class="fil0" d="M8.87 34.02c-0.08,0 -0.15,-0.03 -0.2,-0.08 -0.05,-0.05 -0.08,-0.12 -0.08,-0.2l0 -8.23c0,-0.08 0.03,-0.15 0.08,-0.2 0.05,-0.05 0.12,-0.08 0.2,-0.08l0.62 0c0.09,0 0.16,0.03 0.21,0.08 0.05,0.05 0.07,0.12 0.07,0.2l0 2.89c0.22,-0.28 0.5,-0.51 0.82,-0.68 0.32,-0.17 0.73,-0.26 1.23,-0.26 0.54,0 0.99,0.12 1.37,0.35 0.38,0.24 0.66,0.56 0.86,0.98 0.19,0.42 0.29,0.9 0.29,1.46l0 3.5c0,0.08 -0.02,0.15 -0.07,0.2 -0.05,0.05 -0.12,0.08 -0.21,0.08l-0.62 0c-0.08,0 -0.15,-0.03 -0.2,-0.08 -0.05,-0.05 -0.08,-0.12 -0.08,-0.2l0 -3.43c0,-0.58 -0.14,-1.03 -0.42,-1.36 -0.28,-0.33 -0.69,-0.49 -1.24,-0.49 -0.51,0 -0.93,0.16 -1.24,0.49 -0.31,0.33 -0.47,0.78 -0.47,1.36l0 3.43c0,0.08 -0.02,0.15 -0.07,0.2 -0.05,0.05 -0.12,0.08 -0.21,0.08l-0.62 0z"/>
  <path id="_2" class="fil0" d="M19.23 34.14c-0.63,0 -1.15,-0.12 -1.57,-0.36 -0.42,-0.24 -0.74,-0.57 -0.97,-1 -0.22,-0.43 -0.35,-0.91 -0.37,-1.46 -0.01,-0.14 -0.01,-0.32 -0.01,-0.54 0,-0.22 0,-0.39 0.01,-0.53 0.02,-0.55 0.15,-1.04 0.38,-1.46 0.23,-0.42 0.55,-0.75 0.97,-0.99 0.42,-0.24 0.94,-0.36 1.56,-0.36 0.62,0 1.14,0.12 1.56,0.36 0.42,0.24 0.75,0.57 0.97,0.99 0.23,0.42 0.35,0.91 0.38,1.46 0.01,0.13 0.01,0.31 0.01,0.53 0,0.22 -0,0.4 -0.01,0.54 -0.02,0.55 -0.15,1.03 -0.37,1.46 -0.22,0.43 -0.55,0.76 -0.97,1 -0.42,0.24 -0.95,0.36 -1.57,0.36zm0 -0.95c0.51,0 0.92,-0.16 1.23,-0.49 0.31,-0.33 0.47,-0.8 0.5,-1.43 0.01,-0.12 0.01,-0.28 0.01,-0.47 0,-0.19 -0,-0.35 -0.01,-0.47 -0.02,-0.63 -0.19,-1.11 -0.5,-1.43 -0.31,-0.33 -0.72,-0.49 -1.23,-0.49 -0.51,0 -0.92,0.16 -1.23,0.49 -0.31,0.33 -0.47,0.8 -0.49,1.43 -0.01,0.12 -0.01,0.28 -0.01,0.47 0,0.19 0,0.35 0.01,0.47 0.02,0.63 0.18,1.11 0.49,1.43 0.31,0.33 0.72,0.49 1.23,0.49z"/>
  <path id="_3" class="fil0" d="M24.47 36.38c-0.08,0 -0.15,-0.03 -0.2,-0.08 -0.05,-0.05 -0.08,-0.12 -0.08,-0.2l0 -8.23c0,-0.08 0.03,-0.15 0.08,-0.2 0.05,-0.05 0.12,-0.08 0.2,-0.08l0.57 0c0.08,0 0.15,0.03 0.2,0.08 0.05,0.05 0.08,0.12 0.08,0.2l0 0.55c0.2,-0.27 0.46,-0.5 0.79,-0.68 0.33,-0.18 0.74,-0.27 1.24,-0.27 0.46,0 0.86,0.08 1.18,0.24 0.33,0.16 0.6,0.37 0.81,0.64 0.21,0.27 0.37,0.58 0.48,0.93 0.11,0.35 0.17,0.72 0.17,1.12 0.01,0.13 0.01,0.27 0.01,0.42 0,0.15 -0,0.29 -0.01,0.42 -0.01,0.39 -0.07,0.76 -0.17,1.11 -0.11,0.35 -0.27,0.66 -0.48,0.93 -0.21,0.27 -0.48,0.48 -0.81,0.64 -0.33,0.16 -0.72,0.24 -1.18,0.24 -0.48,0 -0.88,-0.09 -1.21,-0.27 -0.33,-0.18 -0.59,-0.4 -0.8,-0.66l0 2.88c0,0.08 -0.02,0.15 -0.07,0.2 -0.05,0.05 -0.12,0.08 -0.21,0.08l-0.6 0zm2.63 -3.24c0.43,0 0.77,-0.09 1.01,-0.28 0.24,-0.19 0.42,-0.43 0.53,-0.73 0.11,-0.3 0.17,-0.63 0.19,-0.97 0.01,-0.24 0.01,-0.48 0,-0.72 -0.02,-0.35 -0.08,-0.67 -0.19,-0.97 -0.11,-0.3 -0.28,-0.55 -0.53,-0.73 -0.24,-0.19 -0.58,-0.28 -1.01,-0.28 -0.4,0 -0.73,0.1 -0.99,0.28 -0.25,0.19 -0.44,0.43 -0.56,0.73 -0.12,0.29 -0.19,0.59 -0.2,0.9 -0.01,0.13 -0.01,0.29 -0.01,0.47 0,0.18 0,0.34 0.01,0.48 0.01,0.29 0.08,0.57 0.2,0.86 0.13,0.28 0.32,0.51 0.58,0.69 0.26,0.18 0.58,0.27 0.97,0.27z"/>
  <path class="fil1" d="M6.2 6.2c-0.88,0.01 -4.43,-0.1 -4.97,0.06 -0.65,0.19 -0.9,0.97 -0.58,1.53 0.4,0.69 1.11,0.39 2,0.55 0.31,2.51 0.45,5.18 0.65,7.7 0.16,2.11 0.19,4.69 3.63,4.69l16.17 0c3.43,0 3.46,-2.57 3.63,-4.69 0.2,-2.54 0.34,-5.18 0.65,-7.7 0.83,-0.15 1.54,0.13 1.95,-0.48 0.38,-0.56 0.15,-1.4 -0.53,-1.59 -0.55,-0.16 -4.1,-0.04 -4.97,-0.06l-3.17 -4.79c-0.25,-0.37 -0.67,-1.26 -1.26,-1.39 -0.75,-0.16 -1.39,0.46 -1.24,1.24 0.06,0.33 0.77,1.31 1,1.66 0.44,0.65 1.9,2.66 2.12,3.3l-12.52 0c0.21,-0.63 1.68,-2.65 2.12,-3.3 0.23,-0.35 0.94,-1.32 1,-1.66 0.15,-0.77 -0.49,-1.39 -1.24,-1.23 -0.59,0.13 -0.95,0.9 -1.26,1.38 -0.35,0.54 -0.71,1.07 -1.07,1.6 -0.7,1.03 -1.51,2.19 -2.1,3.2zm3.27 4.26c-1.01,0.39 -0.68,2.16 -0.68,4.01 0,0.66 -0.4,3.91 1.48,3.03 0.98,-0.46 0.59,-2.84 0.59,-4.02 0,-1.13 0.31,-3.68 -1.39,-3.02zm10.4 -0.02c-1.04,0.34 -0.72,2.09 -0.72,3.93 0,1.2 -0.36,3.67 1.36,3.19 1.13,-0.31 0.71,-2.78 0.71,-3.96 0,-1.2 0.34,-3.71 -1.35,-3.15zm-5.9 1.27l0 4.21c0,0.92 0.07,1.6 0.94,1.67 0.92,0.07 1.14,-0.57 1.14,-1.45l-0 -4.43c0,-1.82 -2.07,-1.81 -2.07,0z"/>
 </g>
</svg>
